<svg xmlns="http://www.w3.org/2000/svg" xmlns:xlink="http://www.w3.org/1999/xlink" width="300" height="300" viewBox="527577.784 155242.884 12688.032000000007 16413.732000000018" preserveAspectRatio="xMinYMin meet"><g transform="matrix(1,0,0,-1,0,326899.5)"><g><path fill-rule="evenodd" fill="#66cc99" stroke="#555555" stroke-width="109.42488000000012" opacity="0.6" d="M 535009.2,159504.7 L 535005.5,159502.0 L 535002.9,159500.1 L 535000.1,159503.2 L 535000.0,159503.2 L 534747.8,159517.8 L 534588.0,159522.1 L 534512.3,159780.5 L 534474.8,159760.8 L 534398.8,159726.7 L 534391.9,159723.3 L 534378.9,159712.4 L 534345.1,159702.8 L 534314.3,159691.8 L 534292.7,159683.9 L 534253.1,159666.6 L 534229.4,159657.9 L 534207.5,159654.6 L 534160.5,159651.5 L 534159.7,159637.1 L 534109.5,159624.6 L 534075.4,159619.3 L 534001.5,159606.0 L 533965.6,159603.3 L 533968.0,159564.8 L 533974.9,159467.7 L 533977.0,159416.7 L 533946.5,159414.7 L 533940.6,159413.0 L 533934.8,159411.2 L 533933.4,159410.8 L 533929.6,159409.5 L 533925.8,159408.2 L 533922.0,159406.8 L 533918.3,159405.3 L 533914.6,159403.6 L 533895.7,159395.1 L 533882.8,159384.5 L 533867.9,159369.3 L 533858.1,159358.4 L 533841.7,159340.1 L 533819.9,159310.0 L 533825.2,159304.7 L 533823.1,159297.0 L 533813.0,159273.6 L 533803.7,159265.1 L 533792.0,159257.6 L 533775.5,159264.0 L 533760.6,159288.2 L 533752.9,159290.9 L 533744.9,159285.4 L 533721.2,159269.1 L 533685.3,159261.4 L 533651.8,159251.5 L 533644.5,159247.9 L 533650.2,159218.2 L 533608.5,159201.5 L 533567.3,159158.7 L 533606.2,159113.6 L 533634.3,159079.2 L 533663.7,159032.5 L 533683.9,158988.3 L 533707.1,158950.2 L 533748.1,158867.9 L 533759.6,158845.1 L 533779.5,158801.7 L 533784.9,158774.0 L 533793.6,158719.0 L 533787.4,158687.8 L 533783.1,158653.7 L 533782.5,158583.5 L 533761.1,158571.1 L 533747.6,158564.9 L 533739.8,158559.8 L 533728.7,158550.1 L 533682.6,158514.7 L 533661.7,158500.3 L 533639.9,158487.2 L 533541.8,158423.9 L 533463.9,158376.2 L 533459.0,158371.7 L 533454.5,158364.5 L 533448.9,158358.0 L 533398.6,158302.1 L 533340.3,158233.0 L 533335.0,158225.5 L 533326.4,158211.0 L 533312.0,158189.7 L 533320.1,158149.2 L 533320.4,158137.6 L 533318.8,158121.3 L 533319.4,158100.3 L 533319.7,158064.1 L 533321.7,158040.7 L 533330.7,157967.5 L 533324.6,157954.8 L 533320.7,157945.5 L 533318.3,157928.8 L 533316.7,157921.0 L 533297.4,157888.0 L 533295.9,157885.8 L 533273.3,157878.5 L 533267.9,157869.3 L 533266.0,157864.4 L 533263.1,157853.6 L 533261.2,157842.6 L 533260.0,157827.4 L 533189.6,157823.2 L 533179.7,157807.8 L 533159.5,157759.9 L 533169.0,157747.5 L 533180.7,157736.6 L 533176.2,157688.8 L 533180.2,157679.7 L 533177.5,157656.8 L 533177.1,157644.4 L 533177.8,157604.9 L 533165.3,157546.5 L 532993.1,157465.2 L 532943.4,157445.1 L 532915.8,157452.5 L 532879.1,157522.8 L 532853.6,157530.8 L 532848.0,157540.0 L 532826.2,157542.8 L 532803.7,157526.9 L 532733.5,157495.4 L 532742.2,157476.5 L 532735.9,157465.4 L 532734.7,157457.8 L 532736.8,157448.2 L 532749.8,157410.2 L 532745.1,157404.6 L 532768.1,157384.1 L 532810.6,157351.0 L 532826.1,157342.0 L 532849.5,157330.1 L 532867.5,157323.0 L 532880.9,157319.2 L 532895.5,157317.3 L 532944.9,157317.2 L 532954.5,157314.7 L 532951.4,157305.2 L 532711.7,157118.2 L 532614.4,157045.8 L 532607.7,157040.8 L 532592.7,157028.2 L 532553.1,156991.9 L 532538.6,156979.9 L 532526.1,156970.8 L 532515.5,156964.3 L 532507.2,156960.0 L 532501.5,156957.4 L 532487.7,156952.6 L 532485.1,156951.8 L 532461.7,156944.5 L 532416.5,156933.0 L 532405.5,156929.3 L 532394.7,156924.9 L 532381.5,156918.0 L 532356.5,156900.9 L 532122.6,156725.2 L 531996.6,156632.1 L 531947.8,156595.0 L 531921.3,156574.4 L 531866.4,156530.1 L 531805.6,156485.4 L 531554.4,156499.3 L 531548.3,156499.8 L 531542.2,156498.8 L 531538.4,156495.3 L 531540.5,156485.8 L 531541.8,156483.8 L 531553.2,156433.9 L 531560.7,156399.0 L 531546.8,156393.3 L 531541.2,156400.2 L 531524.5,156390.4 L 531529.3,156384.7 L 531528.7,156384.5 L 531523.5,156380.6 L 531513.1,156371.0 L 531496.4,156350.7 L 531504.6,156341.0 L 531483.9,156307.5 L 531477.1,156296.5 L 531469.8,156283.0 L 531449.0,156241.6 L 531442.4,156221.6 L 531439.2,156218.2 L 531437.3,156215.1 L 531435.8,156210.6 L 531426.4,156204.1 L 531417.4,156197.0 L 531407.8,156174.5 L 531400.5,156154.7 L 531395.6,156134.5 L 531394.9,156124.9 L 531399.0,156112.5 L 531397.2,156076.1 L 531394.9,156055.9 L 531374.1,156006.5 L 531362.1,155969.3 L 531354.7,155945.2 L 531350.6,155925.0 L 531351.6,155899.8 L 531318.4,155897.4 L 531290.8,155895.2 L 531112.7,155878.4 L 530898.1,155850.8 L 530893.7,155862.3 L 530885.8,155876.9 L 530882.1,155882.7 L 530874.7,155893.0 L 530864.8,155904.6 L 530814.4,155972.8 L 530791.5,156008.9 L 530780.2,156020.5 L 530770.5,156028.5 L 530766.2,156052.9 L 530761.7,156102.1 L 530756.7,156143.1 L 530754.0,156151.1 L 530751.8,156155.3 L 530695.3,156237.8 L 530680.9,156257.8 L 530630.5,156324.7 L 530619.3,156336.5 L 530610.9,156343.8 L 530583.4,156376.9 L 530520.2,156449.0 L 530477.0,156490.4 L 530474.5,156493.3 L 530470.2,156499.1 L 530445.1,156546.8 L 530437.7,156563.5 L 530422.4,156615.4 L 530397.6,156669.2 L 530385.6,156693.2 L 530376.4,156719.7 L 530375.9,156722.4 L 530375.3,156728.3 L 530375.3,156734.4 L 530376.1,156740.0 L 530377.9,156746.3 L 530380.9,156753.0 L 530384.1,156758.6 L 530390.7,156766.9 L 530400.8,156788.4 L 530402.6,156793.5 L 530400.0,156804.5 L 530398.1,156807.8 L 530387.1,156822.3 L 530377.9,156832.1 L 530339.2,156862.9 L 530325.5,156879.1 L 530312.2,156900.4 L 530278.5,156948.8 L 530270.4,156961.1 L 530265.6,156966.8 L 530259.4,156973.2 L 530251.5,156980.2 L 530241.0,156993.8 L 530197.6,157061.5 L 530160.0,157118.0 L 530160.0,157121.3 L 530158.3,157124.9 L 530156.7,157126.1 L 530154.4,157126.8 L 530151.9,157126.6 L 530079.8,157116.7 L 530066.1,157122.2 L 530054.6,157112.2 L 530050.6,157108.7 L 530037.0,157103.8 L 530030.4,157103.6 L 530026.4,157109.3 L 530011.2,157200.6 L 530003.3,157247.3 L 530000.1,157278.2 L 530000.0,157278.3 L 529988.9,157302.7 L 529950.6,157387.0 L 529946.2,157388.5 L 529941.6,157388.5 L 529935.4,157386.6 L 529915.2,157373.4 L 529910.1,157370.6 L 529901.7,157367.1 L 529867.1,157347.6 L 529855.8,157341.8 L 529849.0,157337.6 L 529836.7,157328.4 L 529786.3,157294.0 L 529767.0,157281.1 L 529746.7,157268.3 L 529734.3,157259.6 L 529727.5,157254.6 L 529720.7,157247.0 L 529718.1,157245.9 L 529712.8,157244.7 L 529707.2,157244.1 L 529699.7,157244.8 L 529682.0,157252.5 L 529671.1,157256.1 L 529647.9,157265.9 L 529617.5,157276.5 L 529600.8,157281.5 L 529594.3,157283.3 L 529572.6,157287.9 L 529568.1,157288.2 L 529513.9,157429.3 L 529455.7,157347.8 L 529425.3,157366.1 L 529373.9,157266.4 L 529372.2,157267.0 L 529308.3,157289.8 L 529201.7,157348.0 L 529174.4,157358.8 L 529101.6,157356.6 L 529080.8,157300.8 L 529068.1,157309.6 L 529063.7,157312.0 L 529050.3,157320.6 L 528995.1,157356.3 L 528993.3,157357.5 L 528972.5,157370.9 L 528890.5,157426.0 L 528882.8,157432.3 L 528878.7,157434.9 L 528829.5,157458.5 L 528694.2,157410.2 L 528689.6,157421.7 L 528592.5,157665.2 L 528572.9,157670.4 L 528569.5,157678.0 L 528516.9,157756.6 L 528522.9,157768.2 L 528518.7,157775.0 L 528702.1,157913.0 L 528736.1,157987.0 L 528692.2,157983.3 L 528648.7,157983.8 L 528603.2,157984.1 L 528592.2,157988.3 L 528580.4,157995.6 L 528570.0,158006.4 L 528557.5,158009.5 L 528550.4,158011.3 L 528596.5,158077.1 L 528602.0,158085.0 L 528617.3,158117.5 L 528656.4,158209.9 L 528690.6,158300.2 L 528736.9,158410.2 L 528738.8,158417.6 L 528666.4,158425.7 L 528648.2,158420.6 L 528635.0,158426.2 L 528605.2,158425.7 L 528588.5,158430.2 L 528577.8,158436.3 L 528549.5,158458.1 L 528526.7,158470.7 L 528505.5,158479.8 L 528475.6,158485.9 L 528457.1,158484.8 L 528456.9,158488.7 L 528461.1,158505.0 L 528464.3,158519.2 L 528489.4,158611.7 L 528502.8,158673.3 L 528524.6,158735.8 L 528531.3,158754.2 L 528513.1,158795.8 L 528507.3,158809.1 L 528500.9,158821.9 L 528496.3,158833.1 L 528488.6,158856.6 L 528478.7,158877.9 L 528447.8,158927.5 L 528443.8,158936.9 L 528430.7,158952.9 L 528400.0,158997.9 L 528385.4,159016.9 L 528374.7,159035.8 L 528361.5,159085.9 L 528355.3,159119.0 L 528352.9,159163.1 L 528329.6,159156.9 L 528306.7,159144.4 L 528290.8,159135.7 L 528259.2,159178.8 L 528246.9,159199.9 L 528240.5,159206.8 L 528238.9,159215.9 L 528240.3,159224.4 L 528245.9,159230.3 L 528238.9,159257.2 L 528235.5,159256.1 L 528224.2,159293.5 L 528225.4,159293.9 L 528219.0,159317.4 L 528194.2,159408.3 L 528193.9,159409.1 L 528187.0,159434.4 L 528185.7,159439.4 L 528405.1,159562.2 L 528418.2,159569.2 L 528559.8,159644.8 L 528556.6,159650.4 L 528552.3,159658.1 L 528556.0,159659.5 L 528558.6,159660.4 L 528577.5,159667.5 L 528603.4,159682.0 L 528604.9,159682.9 L 528596.0,159698.5 L 528615.2,159709.2 L 528622.7,159697.1 L 528675.0,159734.8 L 528760.1,159793.0 L 528815.5,159831.4 L 528861.0,159752.4 L 528862.3,159750.2 L 528868.9,159752.8 L 528885.0,159759.1 L 528902.0,159765.8 L 528902.4,159765.8 L 528911.4,159764.1 L 528957.8,159743.5 L 528966.7,159742.2 L 528973.1,159746.0 L 528973.4,159746.2 L 528985.0,159753.8 L 529035.6,159779.3 L 529045.2,159784.6 L 529073.5,159813.4 L 529092.5,159801.5 L 529119.3,159802.9 L 529149.1,159803.8 L 529173.2,159815.4 L 529204.0,159831.0 L 529245.5,159855.5 L 529287.9,159883.6 L 529307.4,159895.9 L 529312.0,159898.7 L 529312.2,159899.4 L 529343.7,160000.0 L 529396.7,160168.9 L 529382.7,160170.3 L 529387.4,160213.8 L 529382.4,160232.1 L 529269.9,160314.2 L 529235.9,160336.2 L 529206.5,160355.1 L 529089.5,160442.4 L 529036.3,160477.6 L 529047.3,160484.9 L 529123.6,160535.7 L 529248.1,160610.0 L 529358.4,160673.2 L 529397.6,160698.6 L 529328.7,160777.7 L 529318.2,160793.7 L 529297.6,160855.5 L 529284.7,160891.7 L 529274.0,160946.9 L 529270.6,160992.7 L 529261.7,161047.7 L 529257.2,161075.7 L 529240.8,161123.7 L 529215.8,161217.3 L 529186.4,161352.9 L 529173.3,161438.8 L 529157.9,161518.7 L 529151.1,161516.3 L 529132.4,161594.5 L 529143.0,161598.2 L 529143.7,161598.4 L 529259.2,161640.4 L 529297.4,161658.6 L 529340.8,161679.1 L 529358.1,161720.1 L 529357.4,161725.7 L 529352.9,161758.6 L 529367.6,161770.2 L 529388.5,161782.7 L 529404.2,161793.7 L 529411.8,161799.7 L 529403.9,161815.5 L 529382.8,161872.2 L 529374.7,161890.3 L 529364.3,161886.8 L 529332.1,161960.1 L 529328.7,161967.8 L 529356.8,161984.8 L 529357.1,161984.9 L 529356.9,161985.6 L 529355.9,161988.0 L 529354.7,161990.8 L 529376.5,162003.2 L 529409.8,162027.8 L 529437.8,162048.4 L 529442.1,162042.9 L 529497.1,162072.9 L 529500.0,162074.5 L 529490.7,162089.1 L 529488.8,162092.2 L 529502.1,162100.2 L 529520.4,162110.8 L 529536.6,162120.2 L 529564.3,162134.9 L 529711.3,162205.6 L 529785.6,162240.3 L 529844.4,162268.0 L 529868.9,162278.0 L 529882.3,162280.4 L 529895.3,162282.7 L 529901.8,162239.9 L 529902.5,162240.2 L 529908.1,162242.7 L 529928.7,162246.6 L 529955.9,162249.7 L 529988.4,162251.9 L 530005.5,162254.2 L 530051.0,162254.6 L 530096.8,162250.2 L 530124.3,162244.0 L 530158.2,162235.9 L 530163.9,162234.6 L 530150.9,162292.2 L 530135.0,162356.6 L 530134.3,162360.4 L 530243.1,162366.3 L 530257.2,162367.5 L 530255.6,162371.6 L 530244.2,162402.0 L 530235.1,162426.5 L 530234.4,162428.2 L 530294.8,162441.2 L 530324.6,162450.6 L 530343.4,162457.6 L 530356.3,162463.1 L 530370.5,162472.1 L 530381.8,162479.2 L 530395.8,162490.0 L 530402.6,162495.3 L 530400.6,162499.0 L 530392.0,162520.3 L 530390.8,162523.1 L 530408.8,162541.8 L 530418.3,162550.9 L 530419.1,162551.7 L 530409.6,162571.1 L 530409.3,162571.7 L 530443.4,162592.5 L 530444.7,162589.9 L 530449.6,162580.6 L 530452.4,162581.4 L 530455.6,162582.4 L 530500.2,162593.3 L 530508.5,162578.0 L 530515.5,162565.0 L 530528.8,162526.6 L 530532.4,162505.1 L 530540.6,162427.8 L 530543.7,162400.8 L 530559.8,162374.5 L 530556.4,162372.5 L 530550.0,162368.6 L 530550.3,162366.7 L 530552.4,162352.2 L 530535.1,162340.4 L 530554.3,162309.9 L 530556.3,162306.7 L 530592.0,162329.0 L 530612.9,162344.5 L 530620.1,162350.8 L 530642.4,162352.8 L 530695.8,162358.9 L 530981.9,162392.4 L 531084.3,162402.2 L 531106.4,162393.4 L 531112.8,162405.0 L 531124.2,162425.7 L 531142.3,162407.8 L 531218.6,162415.2 L 531223.1,162417.0 L 531245.8,162424.2 L 531238.2,162524.4 L 531212.2,162522.2 L 531211.4,162528.1 L 531196.1,162630.7 L 531168.9,162750.0 L 531159.3,162797.6 L 531148.6,162838.7 L 531138.1,162898.9 L 531130.6,162961.3 L 531118.7,163033.3 L 531101.6,163117.8 L 531080.2,163200.0 L 531073.1,163233.5 L 531071.8,163241.9 L 530998.1,163229.1 L 530987.6,163277.0 L 530970.9,163353.4 L 530953.4,163466.3 L 530932.7,163570.8 L 530897.6,163747.9 L 530705.8,163709.6 L 530699.6,163727.4 L 530676.9,163811.7 L 530679.5,163814.3 L 530680.7,163815.5 L 530666.5,163865.1 L 530665.6,163868.3 L 530752.4,163902.3 L 530761.3,163876.5 L 530859.7,163894.6 L 530863.8,163895.4 L 530802.2,163959.0 L 530787.0,163988.5 L 530821.2,163996.1 L 530824.2,163996.7 L 530826.7,163989.8 L 530858.4,163997.0 L 530862.6,163998.0 L 530849.8,164055.5 L 530849.3,164057.7 L 530856.3,164060.9 L 530844.9,164108.1 L 530886.0,164117.5 L 530891.5,164118.8 L 530883.9,164144.6 L 530892.8,164167.9 L 530874.5,164236.4 L 530881.7,164239.0 L 530887.3,164241.0 L 530890.2,164242.1 L 530884.5,164258.9 L 530883.9,164260.3 L 530906.0,164281.5 L 530899.7,164310.1 L 530895.3,164335.2 L 530892.9,164347.1 L 530916.6,164369.3 L 530886.5,164526.8 L 530874.7,164524.3 L 530875.4,164517.7 L 530875.7,164514.7 L 530871.1,164513.8 L 530814.0,164502.4 L 530812.7,164502.1 L 530810.1,164508.9 L 530803.4,164524.0 L 530790.5,164537.2 L 530762.9,164559.8 L 530734.2,164574.0 L 530692.7,164581.8 L 530690.6,164590.2 L 530689.3,164595.4 L 530761.0,164620.3 L 530828.3,164645.0 L 530827.2,164659.4 L 530826.7,164695.1 L 530823.9,164726.6 L 530816.3,164769.8 L 530807.6,164809.4 L 530804.6,164820.6 L 530795.5,164848.3 L 530793.3,164859.4 L 530787.0,164875.4 L 530781.3,164893.6 L 530779.8,164907.6 L 530762.0,165000.0 L 530752.9,165059.4 L 530748.1,165075.1 L 530739.4,165104.0 L 530733.8,165135.8 L 530732.5,165144.8 L 530731.1,165154.2 L 530726.7,165170.1 L 530726.8,165178.1 L 530731.5,165184.5 L 530730.4,165206.3 L 530730.8,165209.9 L 530730.2,165217.4 L 530728.9,165231.0 L 530726.3,165241.1 L 530708.7,165268.9 L 530702.2,165278.9 L 530661.2,165358.2 L 530625.1,165427.2 L 530621.5,165434.0 L 530628.3,165435.7 L 530638.3,165438.3 L 530635.2,165462.5 L 530632.1,165486.8 L 530621.5,165513.5 L 530599.8,165525.9 L 530549.1,165549.8 L 530494.8,165581.8 L 530408.3,165625.9 L 530407.8,165626.1 L 530402.3,165629.0 L 530447.9,165640.1 L 530483.7,165648.8 L 530470.1,165706.5 L 530468.7,165712.2 L 530506.0,165714.3 L 530512.8,165714.7 L 530530.8,165723.4 L 530532.2,165723.9 L 530540.2,165727.6 L 530522.8,165779.2 L 530517.5,165777.8 L 530511.6,165776.1 L 530511.4,165776.7 L 530486.5,165844.1 L 530479.9,165871.8 L 530470.0,165902.2 L 530456.9,165918.3 L 530448.9,165948.8 L 530429.0,166035.1 L 530408.5,166118.3 L 530391.7,166183.5 L 530384.6,166215.5 L 530378.7,166241.9 L 530370.0,166267.9 L 530358.2,166286.6 L 530329.0,166319.5 L 530256.9,166402.2 L 530211.7,166454.0 L 530210.8,166455.1 L 530210.4,166455.5 L 530291.1,166479.0 L 530324.1,166488.8 L 530313.8,166514.0 L 530306.1,166544.4 L 530298.0,166588.5 L 530293.9,166591.6 L 530289.3,166626.4 L 530270.0,166727.6 L 530262.9,166756.8 L 530255.1,166797.8 L 530259.8,166811.1 L 530273.8,166813.0 L 530279.8,166815.3 L 530282.5,166816.4 L 530295.9,166822.6 L 530302.0,166825.4 L 530307.9,166839.7 L 530301.8,166842.8 L 530235.6,166876.0 L 530173.8,166904.3 L 530179.1,166910.1 L 530203.9,166937.5 L 530220.0,166955.8 L 530233.7,166979.4 L 530247.7,167001.5 L 530252.6,167008.9 L 530236.2,167027.2 L 530222.5,167041.2 L 530205.1,167057.7 L 530158.6,167104.9 L 530134.9,167127.2 L 530134.0,167128.1 L 530082.8,167176.3 L 530082.5,167180.6 L 530067.9,167191.0 L 530041.8,167217.9 L 530008.9,167245.5 L 529983.8,167265.1 L 529996.8,167285.6 L 530023.7,167327.4 L 530025.7,167330.6 L 530020.2,167334.1 L 530011.4,167339.4 L 529998.7,167347.1 L 529965.4,167367.6 L 529929.7,167391.0 L 529916.2,167399.9 L 529901.4,167409.1 L 529900.6,167409.6 L 529902.2,167411.8 L 529906.2,167417.3 L 529908.5,167420.6 L 529922.9,167437.8 L 529932.0,167446.8 L 529941.5,167455.4 L 529959.1,167468.8 L 529974.7,167478.5 L 530058.9,167539.8 L 530184.1,167625.6 L 530229.8,167659.5 L 530286.0,167710.4 L 530275.8,167710.5 L 530260.8,167708.5 L 530231.9,167721.2 L 530220.6,167727.6 L 530242.3,167748.0 L 530294.4,167803.3 L 530341.3,167851.4 L 530395.8,167917.6 L 530440.3,167978.9 L 530524.5,168093.9 L 530569.4,168154.5 L 530581.0,168164.9 L 530594.6,168178.5 L 530566.6,168201.4 L 530575.0,168213.7 L 530570.0,168218.0 L 530559.5,168230.8 L 530549.5,168236.9 L 530532.9,168243.9 L 530514.4,168249.5 L 530483.2,168252.7 L 530485.2,168258.9 L 530497.9,168299.0 L 530502.0,168307.9 L 530503.1,168310.5 L 530504.5,168313.8 L 530505.0,168320.2 L 530505.4,168325.2 L 530501.1,168333.0 L 530486.0,168358.6 L 530466.2,168392.9 L 530449.8,168422.0 L 530444.0,168431.0 L 530437.5,168439.6 L 530422.2,168460.1 L 530413.3,168473.1 L 530405.2,168484.3 L 530385.4,168512.3 L 530372.0,168532.9 L 530350.9,168566.3 L 530341.3,168585.8 L 530335.8,168592.3 L 530330.8,168598.4 L 530332.0,168599.3 L 530334.2,168601.1 L 530316.0,168625.5 L 530314.5,168625.7 L 530312.9,168626.0 L 530296.0,168643.7 L 530291.3,168647.7 L 530280.1,168667.0 L 530268.7,168681.6 L 530252.1,168698.3 L 530225.6,168721.4 L 530213.1,168732.3 L 530138.3,168794.3 L 530136.5,168796.5 L 530135.0,168799.6 L 530127.9,168819.7 L 530126.8,168825.8 L 530123.6,168833.0 L 530106.8,168854.6 L 530088.3,168875.0 L 530085.0,168879.3 L 530080.4,168886.0 L 530077.8,168892.1 L 530076.7,168895.9 L 530060.4,168978.1 L 530059.0,168983.9 L 530068.9,168987.8 L 530065.9,169008.8 L 530063.1,169014.2 L 530061.7,169015.8 L 530049.8,169025.3 L 530000.1,169199.3 L 529984.6,169363.5 L 530000.0,169365.5 L 530000.1,169365.5 L 530021.0,169370.0 L 530016.4,169407.3 L 530013.7,169419.4 L 530013.0,169422.5 L 530011.2,169433.0 L 530009.7,169449.1 L 530063.3,169455.5 L 530063.4,169456.3 L 530064.6,169487.9 L 530087.5,169489.1 L 530118.3,169492.6 L 530119.1,169493.3 L 530190.1,169498.7 L 530189.3,169529.5 L 530197.7,169531.1 L 530210.0,169555.0 L 530225.1,169588.9 L 530237.0,169615.2 L 530247.2,169634.9 L 530244.8,169640.2 L 530251.3,169650.1 L 530252.7,169653.5 L 530255.4,169660.3 L 530266.5,169657.9 L 530273.2,169653.6 L 530275.6,169652.1 L 530285.4,169684.1 L 530299.7,169754.7 L 530305.0,169772.9 L 530312.2,169794.5 L 530317.5,169806.6 L 530302.4,169806.7 L 530324.4,169826.7 L 530330.5,169830.5 L 530380.1,169861.4 L 530403.6,169877.1 L 530404.4,169877.6 L 530406.5,169875.6 L 530421.6,169861.4 L 530438.2,169845.2 L 530445.4,169860.5 L 530451.1,169876.7 L 530495.3,169919.9 L 530495.4,169920.0 L 530525.7,169928.5 L 530527.8,169929.1 L 530524.6,169941.5 L 530521.6,169952.9 L 530522.7,169964.0 L 530524.5,169981.0 L 530526.6,170000.0 L 530531.1,170000.5 L 530536.4,170019.6 L 530544.0,170044.4 L 530551.6,170068.2 L 530562.6,170070.9 L 530579.2,170073.4 L 530597.8,170081.0 L 530616.9,170103.9 L 530624.0,170116.9 L 530625.5,170119.6 L 530654.1,170118.1 L 530661.2,170117.7 L 530659.8,170136.1 L 530657.1,170140.2 L 530658.9,170144.4 L 530660.4,170147.8 L 530674.2,170171.2 L 530678.8,170178.2 L 530696.9,170204.0 L 530712.5,170226.4 L 530718.9,170248.0 L 530720.8,170254.1 L 530726.7,170266.6 L 530736.7,170285.5 L 530744.8,170300.9 L 530749.8,170314.7 L 530755.4,170325.7 L 530760.9,170334.6 L 530764.0,170339.5 L 530768.6,170337.2 L 530774.3,170345.2 L 530772.6,170346.5 L 530768.6,170348.5 L 530769.0,170349.1 L 530768.8,170349.3 L 530773.0,170356.2 L 530779.8,170368.3 L 530793.6,170402.4 L 530802.6,170427.7 L 530809.3,170454.1 L 530815.5,170471.6 L 530820.7,170486.4 L 530822.1,170515.4 L 530833.6,170542.5 L 530856.7,170563.0 L 530884.8,170583.8 L 530900.4,170595.5 L 530928.7,170616.8 L 530934.3,170622.0 L 530943.5,170630.6 L 530952.1,170637.9 L 530969.8,170655.1 L 530974.2,170659.0 L 530976.8,170656.7 L 531020.4,170688.7 L 531032.9,170695.6 L 531058.0,170710.5 L 531085.0,170723.5 L 531102.7,170734.8 L 531115.8,170746.9 L 531124.0,170755.7 L 531133.7,170772.0 L 531138.2,170776.8 L 531141.8,170785.7 L 531173.8,170820.4 L 531172.5,170822.7 L 531192.0,170853.4 L 531194.8,170864.0 L 531196.3,170869.5 L 531197.7,170869.8 L 531199.8,170870.1 L 531200.2,170870.2 L 531215.8,170900.6 L 531221.8,170911.7 L 531225.0,170917.7 L 531231.2,170936.3 L 531232.9,170941.5 L 531242.0,170958.9 L 531277.8,170994.3 L 531296.0,171012.1 L 531314.4,171036.2 L 531317.0,171047.0 L 531318.8,171048.7 L 531362.9,171045.4 L 531399.7,171043.2 L 531442.9,171040.6 L 531471.7,171039.8 L 531501.1,171042.8 L 531509.9,171043.2 L 531516.2,171043.5 L 531533.3,171045.9 L 531549.3,171045.0 L 531560.6,171043.0 L 531597.3,171032.9 L 531653.5,171015.0 L 531714.2,170998.2 L 531749.6,170989.7 L 531772.6,170986.9 L 531781.7,170986.4 L 531786.4,170986.5 L 531799.6,170986.6 L 531846.9,170991.5 L 531881.5,170996.0 L 531908.5,170997.4 L 532148.9,170996.0 L 532192.6,170997.8 L 532285.2,170999.5 L 532314.7,170999.5 L 532334.2,171000.4 L 532354.9,171002.2 L 532375.5,171004.8 L 532394.7,171008.1 L 532417.5,171012.9 L 532467.3,171024.3 L 532560.8,171031.2 L 532578.0,171033.4 L 532595.0,171034.4 L 532612.1,171034.0 L 532624.8,171032.9 L 532644.0,171029.5 L 532658.7,171025.6 L 532674.7,171020.2 L 532688.6,171014.9 L 532707.9,171006.3 L 532738.1,170986.4 L 532750.1,170972.0 L 532776.8,170940.0 L 532803.4,170917.9 L 532824.2,170903.0 L 532842.5,170891.1 L 532888.1,170864.8 L 532898.9,170859.6 L 532908.4,170854.2 L 532915.1,170849.8 L 532921.8,170844.7 L 532931.5,170836.3 L 532947.0,170820.2 L 532970.0,170791.2 L 533012.8,170738.9 L 533031.4,170724.0 L 533044.1,170715.8 L 533061.5,170705.9 L 533117.5,170676.3 L 533127.7,170669.6 L 533142.3,170662.6 L 533155.9,170658.1 L 533172.7,170655.1 L 533180.1,170654.6 L 533195.1,170654.9 L 533217.6,170657.8 L 533254.1,170665.8 L 533331.1,170690.9 L 533369.8,170704.2 L 533400.7,170711.5 L 533401.4,170711.7 L 533438.2,170717.3 L 533480.2,170715.8 L 533560.2,170710.3 L 533581.3,170709.9 L 533595.2,170710.3 L 533621.4,170712.6 L 533648.4,170717.2 L 533663.7,170720.8 L 533693.3,170730.0 L 533702.0,170732.7 L 533708.6,170726.5 L 533703.7,170719.8 L 533693.8,170707.5 L 533680.1,170689.7 L 533652.1,170654.0 L 533635.5,170631.8 L 533627.8,170617.6 L 533615.3,170591.7 L 533601.5,170560.9 L 533590.2,170535.0 L 533575.2,170508.7 L 533551.2,170480.8 L 533542.8,170470.3 L 533538.8,170463.0 L 533532.7,170445.7 L 533531.5,170433.0 L 533534.3,170429.7 L 533540.0,170422.8 L 533542.9,170420.1 L 533541.9,170406.7 L 533545.6,170374.4 L 533552.9,170329.4 L 533559.2,170302.6 L 533578.5,170267.6 L 533583.7,170261.3 L 533580.9,170254.0 L 533580.5,170253.1 L 533584.7,170250.8 L 533605.0,170240.2 L 533633.4,170226.6 L 533656.0,170219.5 L 533681.7,170211.4 L 533747.3,170187.6 L 533757.7,170181.7 L 533778.4,170164.7 L 533802.9,170148.8 L 533834.0,170130.2 L 533842.6,170127.7 L 533850.4,170128.5 L 533858.3,170134.7 L 533865.7,170130.3 L 533893.8,170104.0 L 533902.8,170095.5 L 533913.5,170089.8 L 533916.7,170087.6 L 533926.6,170078.5 L 533930.7,170074.8 L 533943.6,170064.2 L 533954.4,170056.1 L 533964.6,170049.0 L 533963.8,170048.0 L 533954.9,170037.4 L 534005.9,170003.5 L 534029.3,169988.2 L 534043.3,169979.5 L 534054.3,169974.8 L 534060.8,169972.3 L 534062.5,169971.6 L 534062.5,169965.3 L 534084.6,169959.8 L 534125.6,169947.7 L 534116.1,169909.6 L 534109.3,169878.4 L 534098.7,169838.3 L 534089.6,169810.2 L 534081.6,169774.7 L 534079.4,169764.6 L 534078.5,169739.3 L 534077.4,169699.3 L 534079.8,169656.3 L 534087.2,169602.5 L 534098.5,169562.4 L 534104.9,169546.2 L 534117.6,169507.5 L 534131.0,169478.9 L 534147.0,169452.0 L 534170.0,169416.9 L 534196.6,169383.0 L 534227.2,169349.7 L 534261.9,169315.5 L 534290.8,169279.9 L 534321.6,169236.5 L 534353.6,169181.8 L 534360.3,169169.2 L 534364.2,169158.8 L 534371.5,169146.5 L 534381.3,169127.2 L 534391.7,169109.8 L 534393.4,169100.0 L 534394.5,169085.1 L 534412.2,169057.4 L 534412.1,169047.5 L 534411.0,169027.7 L 534416.6,169016.0 L 534418.3,169012.3 L 534417.8,169011.4 L 534415.8,169007.5 L 534430.4,168986.5 L 534434.3,168977.8 L 534440.8,168970.9 L 534445.4,168966.1 L 534461.2,168947.0 L 534461.7,168943.6 L 534463.7,168942.5 L 534467.1,168944.7 L 534471.4,168941.3 L 534472.2,168940.6 L 534473.5,168939.4 L 534469.1,168935.0 L 534466.5,168932.7 L 534474.4,168926.5 L 534476.5,168928.2 L 534480.8,168931.5 L 534481.7,168930.7 L 534499.9,168913.3 L 534511.6,168901.8 L 534529.8,168886.4 L 534540.6,168878.1 L 534549.1,168870.9 L 534553.9,168866.2 L 534559.8,168860.6 L 534567.7,168855.3 L 534579.7,168846.9 L 534596.8,168834.9 L 534609.2,168829.0 L 534621.5,168822.5 L 534637.2,168813.3 L 534654.8,168804.3 L 534687.4,168792.5 L 534700.6,168787.4 L 534731.1,168778.2 L 534725.7,168756.7 L 534722.3,168742.3 L 534768.6,168734.3 L 534781.2,168726.7 L 534782.6,168726.6 L 534805.3,168725.5 L 534841.5,168724.9 L 534893.5,168726.1 L 535000.1,168568.4 L 535039.0,168509.0 L 535002.5,168477.0 L 535001.7,168475.1 L 535011.9,168461.1 L 535029.7,168475.1 L 535093.1,168477.6 L 535103.1,168486.8 L 535130.7,168517.5 L 535174.2,168554.5 L 535225.6,168594.4 L 535267.4,168621.4 L 535318.8,168644.5 L 535345.0,168661.3 L 535376.9,168674.9 L 535417.9,168687.6 L 535466.9,168701.6 L 535493.9,168708.7 L 535516.9,168717.1 L 535533.3,168735.1 L 535570.4,168683.9 L 535609.7,168628.8 L 535641.7,168574.5 L 535666.8,168556.0 L 535701.4,168528.4 L 535602.5,168384.2 L 535655.0,168343.9 L 535692.6,168322.7 L 535718.6,168359.1 L 535727.4,168353.9 L 535695.4,168309.5 L 535686.1,168256.7 L 535630.1,168180.4 L 535521.5,168034.8 L 535532.0,168026.3 L 535516.5,168006.8 L 535536.2,167992.3 L 535542.6,167999.0 L 535579.3,167976.2 L 535578.0,167972.0 L 535579.7,167966.5 L 535586.1,167945.0 L 535592.4,167923.9 L 535620.4,167916.1 L 535643.4,167907.3 L 535644.6,167874.5 L 535645.1,167861.1 L 535655.8,167866.8 L 535656.4,167866.4 L 535668.3,167852.3 L 535731.0,167834.4 L 535741.8,167832.1 L 535786.9,167825.6 L 535825.4,167831.4 L 535851.2,167830.8 L 535873.8,167829.5 L 535900.4,167822.1 L 535921.8,167807.9 L 535932.0,167787.7 L 535959.3,167730.0 L 535962.6,167723.1 L 535976.4,167698.4 L 535990.2,167677.2 L 535990.8,167676.5 L 536013.0,167692.5 L 536031.2,167695.0 L 536038.0,167676.1 L 536047.8,167653.5 L 536069.7,167618.4 L 536102.1,167576.0 L 536141.8,167531.8 L 536213.1,167463.6 L 536250.9,167436.5 L 536279.7,167418.5 L 536314.5,167405.1 L 536345.3,167398.0 L 536349.6,167402.4 L 536355.8,167408.6 L 536384.2,167398.1 L 536400.8,167392.9 L 536440.5,167382.8 L 536482.6,167369.0 L 536504.7,167358.3 L 536524.7,167359.1 L 536534.9,167358.9 L 536566.9,167356.5 L 536597.0,167347.8 L 536627.9,167343.6 L 536675.9,167331.4 L 536717.3,167320.0 L 536716.7,167314.6 L 536706.2,167222.0 L 536680.8,167048.7 L 536678.3,167030.4 L 536662.3,166916.8 L 536637.3,166735.9 L 536642.2,166661.9 L 536656.9,166553.7 L 536698.2,166362.8 L 536717.5,166262.0 L 536757.5,166268.6 L 536721.7,166045.8 L 536732.9,166044.5 L 536734.7,166049.7 L 536742.7,166048.1 L 536742.7,166039.1 L 536749.5,166037.1 L 536773.9,166034.8 L 536807.5,166034.2 L 536875.5,166042.5 L 536969.7,166056.7 L 537021.3,166064.4 L 537111.2,166072.9 L 537111.6,166072.9 L 537118.7,166073.1 L 537125.7,166073.5 L 537132.8,166074.0 L 537139.8,166074.8 L 537146.8,166075.7 L 537153.8,166076.8 L 537160.7,166078.0 L 537167.7,166079.4 L 537174.5,166081.0 L 537181.4,166082.8 L 537188.2,166084.8 L 537192.7,166086.1 L 537197.5,166087.7 L 537202.3,166089.3 L 537207.1,166090.9 L 537211.8,166092.6 L 537216.5,166094.4 L 537221.2,166096.3 L 537225.8,166098.3 L 537230.4,166100.4 L 537234.9,166102.5 L 537239.4,166104.8 L 537243.8,166107.3 L 537248.1,166109.8 L 537252.3,166112.5 L 537256.5,166115.3 L 537260.6,166118.2 L 537261.4,166118.9 L 537266.0,166122.5 L 537270.4,166126.3 L 537274.7,166130.2 L 537278.8,166134.2 L 537282.9,166138.4 L 537286.8,166142.6 L 537290.6,166147.0 L 537294.3,166151.5 L 537297.9,166156.1 L 537301.3,166160.8 L 537304.7,166165.5 L 537306.2,166167.6 L 537308.7,166171.3 L 537311.1,166175.0 L 537313.4,166178.8 L 537315.7,166182.5 L 537318.0,166186.4 L 537320.1,166190.2 L 537322.2,166194.1 L 537324.2,166198.1 L 537326.1,166202.0 L 537327.8,166206.1 L 537329.5,166210.1 L 537331.1,166214.2 L 537332.6,166218.4 L 537333.9,166222.6 L 537335.1,166226.8 L 537336.1,166231.0 L 537337.1,166235.4 L 537337.6,166238.3 L 537338.3,166242.7 L 537338.9,166247.0 L 537339.3,166251.4 L 537339.7,166255.8 L 537339.9,166260.2 L 537340.0,166264.6 L 537339.9,166269.0 L 537339.8,166273.5 L 537339.5,166277.9 L 537339.1,166282.2 L 537338.6,166286.6 L 537338.0,166291.0 L 537334.8,166323.6 L 537419.6,166327.7 L 537419.6,166327.5 L 537424.0,166298.3 L 537430.0,166269.3 L 537434.9,166243.9 L 537443.1,166208.9 L 537452.0,166162.8 L 537468.0,166110.2 L 537472.1,166111.0 L 537475.7,166096.4 L 537479.6,166089.7 L 537483.1,166062.9 L 537486.3,166046.4 L 537489.8,166007.5 L 537474.9,166003.8 L 537492.6,165959.0 L 537496.0,165960.4 L 537499.4,165947.6 L 537509.6,165920.0 L 537525.3,165886.0 L 537530.6,165873.8 L 537545.5,165846.4 L 537550.2,165832.4 L 537552.6,165823.0 L 537556.3,165804.6 L 537559.7,165794.9 L 537561.9,165790.3 L 537604.6,165703.2 L 537615.6,165646.0 L 537622.3,165618.3 L 537640.0,165583.4 L 537665.7,165538.1 L 537665.1,165490.9 L 537664.0,165468.4 L 537658.0,165448.3 L 537653.7,165438.9 L 537652.9,165437.2 L 537658.6,165437.4 L 537662.2,165437.5 L 537661.8,165436.4 L 537659.0,165428.5 L 537659.4,165428.4 L 537665.6,165427.7 L 537665.6,165402.6 L 537668.3,165345.7 L 537670.1,165309.0 L 537670.9,165285.2 L 537674.0,165265.4 L 537675.1,165257.7 L 537679.1,165257.9 L 537679.6,165246.0 L 537675.7,165243.1 L 537675.7,165242.7 L 537675.1,165218.6 L 537675.7,165186.3 L 537677.8,165165.1 L 537682.5,165136.1 L 537693.1,165114.9 L 537697.6,165106.7 L 537701.1,165083.7 L 537703.0,165051.0 L 537708.5,165024.1 L 537710.7,165000.0 L 537710.7,164999.9 L 537714.3,164959.5 L 537703.2,164957.4 L 537698.3,164957.4 L 537697.8,164963.4 L 537697.7,164964.1 L 537649.9,164955.9 L 537650.6,164932.3 L 537619.2,164931.6 L 537621.4,164890.9 L 537675.8,164811.2 L 537672.0,164781.0 L 537686.9,164768.0 L 537705.7,164781.8 L 537726.7,164801.3 L 537776.8,164835.7 L 537786.1,164820.3 L 537799.7,164790.6 L 537807.3,164783.8 L 537827.5,164769.6 L 537843.6,164750.2 L 537850.8,164732.2 L 537863.4,164713.1 L 537871.5,164695.9 L 537883.7,164667.7 L 537886.7,164660.4 L 537914.6,164640.2 L 537929.1,164628.0 L 537935.6,164621.1 L 537944.8,164603.9 L 537949.3,164597.4 L 537954.7,164590.3 L 537959.8,164585.0 L 537969.2,164573.3 L 537978.8,164561.9 L 537985.7,164550.2 L 538001.2,164526.2 L 538007.4,164513.2 L 538018.3,164498.3 L 538022.6,164486.4 L 538028.5,164470.3 L 538031.0,164448.8 L 538043.7,164421.2 L 538052.8,164400.5 L 538060.8,164380.1 L 538061.9,164377.4 L 538067.3,164365.9 L 538072.7,164354.5 L 538075.9,164347.6 L 538059.8,164339.5 L 538067.9,164328.5 L 538077.5,164315.3 L 538098.9,164299.7 L 538112.3,164275.9 L 538136.9,164256.4 L 538194.2,164170.9 L 538223.3,164120.5 L 538258.7,164069.2 L 538301.8,164027.5 L 538344.1,163990.7 L 538360.7,163975.6 L 538378.5,163956.2 L 538404.6,163926.1 L 538422.5,163907.4 L 538439.1,163888.9 L 538439.7,163888.5 L 538456.9,163884.3 L 538487.4,163879.7 L 538495.3,163876.3 L 538505.2,163888.9 L 538510.1,163900.3 L 538516.3,163899.8 L 538525.0,163899.1 L 538525.8,163899.1 L 538551.0,163887.1 L 538579.9,163868.1 L 538651.5,163818.0 L 538679.5,163800.4 L 538698.9,163785.2 L 538709.0,163774.6 L 538727.7,163755.2 L 538752.8,163743.2 L 538769.7,163723.6 L 538784.7,163693.5 L 538798.8,163676.4 L 538815.9,163645.3 L 538825.3,163626.5 L 538846.5,163598.3 L 538871.7,163571.8 L 538899.4,163539.3 L 538904.1,163530.7 L 538914.2,163522.3 L 538927.0,163511.9 L 538940.5,163493.6 L 538940.0,163492.7 L 538937.0,163486.6 L 538954.3,163467.4 L 538980.2,163427.4 L 538980.5,163426.8 L 538984.8,163419.6 L 538987.6,163414.4 L 538991.9,163407.1 L 538995.8,163399.2 L 538995.9,163398.6 L 538998.9,163389.4 L 538995.6,163388.2 L 538993.2,163387.3 L 538999.6,163377.3 L 539004.4,163367.2 L 539006.5,163362.7 L 539011.5,163341.4 L 539014.5,163325.7 L 539022.4,163293.3 L 539028.2,163263.3 L 539033.2,163240.7 L 539042.0,163203.5 L 539043.3,163186.1 L 539043.9,163132.6 L 539050.2,163083.1 L 539053.9,163054.8 L 539063.0,163040.4 L 539073.2,163011.3 L 539075.9,162987.1 L 539082.2,162974.2 L 539086.3,162957.9 L 539101.6,162911.6 L 539109.4,162854.9 L 539118.6,162836.5 L 539143.4,162749.4 L 539156.2,162697.0 L 539161.0,162674.6 L 539178.6,162629.1 L 539185.1,162614.1 L 539185.4,162608.3 L 539180.9,162607.6 L 539192.6,162554.4 L 539200.6,162531.4 L 539205.2,162504.8 L 539210.9,162474.5 L 539211.8,162455.7 L 539211.8,162438.8 L 539214.1,162426.2 L 539227.2,162376.6 L 539247.6,162306.5 L 539259.0,162265.4 L 539260.4,162260.4 L 539269.9,162231.8 L 539280.7,162185.9 L 539286.1,162156.4 L 539278.3,162153.2 L 539293.2,162079.2 L 539299.9,162080.6 L 539304.0,162081.4 L 539306.6,162053.6 L 539303.3,162051.4 L 539300.6,162049.6 L 539306.3,162037.5 L 539314.3,162020.5 L 539330.1,161967.9 L 539336.4,161934.7 L 539346.4,161890.3 L 539355.5,161841.5 L 539372.3,161787.4 L 539384.8,161757.6 L 539411.3,161644.6 L 539419.7,161607.1 L 539426.2,161569.9 L 539446.6,161495.5 L 539459.7,161433.9 L 539460.1,161393.3 L 539481.7,161328.8 L 539488.0,161302.4 L 539489.1,161296.4 L 539483.5,161288.8 L 539492.0,161281.1 L 539518.1,161257.6 L 539543.1,161225.5 L 539562.4,161193.7 L 539586.4,161169.0 L 539610.4,161153.2 L 539634.2,161141.6 L 539657.9,161133.7 L 539654.7,161074.9 L 539646.5,161050.8 L 539633.0,161033.8 L 539633.1,161022.7 L 539630.7,161006.9 L 539631.3,160996.9 L 539631.3,160996.2 L 539635.8,160946.4 L 539636.4,160934.9 L 539635.9,160931.2 L 539634.4,160927.9 L 539631.4,160924.1 L 539597.4,160883.8 L 539588.5,160866.6 L 539590.5,160832.6 L 539592.8,160816.1 L 539595.5,160800.1 L 539596.3,160796.3 L 539512.4,160780.3 L 539439.1,160766.5 L 539402.5,160750.9 L 539383.6,160814.8 L 539353.8,160867.8 L 539316.1,160918.7 L 539271.5,160959.3 L 539183.6,161040.3 L 539102.5,161116.2 L 539076.5,161136.3 L 539033.1,161169.7 L 538957.6,161224.5 L 538921.4,161250.7 L 538926.8,161285.1 L 538857.8,161300.8 L 538849.0,161302.1 L 538840.2,161303.1 L 538831.4,161303.9 L 538822.5,161304.5 L 538813.6,161304.9 L 538804.8,161305.1 L 538803.0,161305.1 L 538794.1,161305.0 L 538785.3,161304.7 L 538776.4,161304.1 L 538767.6,161303.3 L 538758.7,161302.3 L 538749.9,161301.2 L 538741.1,161299.9 L 538732.4,161298.5 L 538730.8,161298.2 L 538719.6,161296.3 L 538708.3,161294.2 L 538697.3,161291.5 L 538694.0,161290.5 L 538689.4,161288.9 L 538684.9,161287.3 L 538680.4,161285.5 L 538680.0,161285.3 L 538665.4,161270.6 L 538657.3,161262.5 L 538667.3,161247.3 L 538681.7,161211.1 L 538664.5,161190.5 L 538597.1,161186.8 L 538501.3,161033.4 L 538481.6,161031.7 L 538476.6,161008.3 L 538477.8,160957.6 L 538474.2,160939.4 L 538460.7,160918.6 L 538443.5,160895.2 L 538437.3,160855.5 L 538436.3,160838.9 L 538424.8,160858.6 L 538415.5,160881.8 L 538399.4,160913.1 L 538381.9,160932.3 L 538376.0,160943.0 L 538370.4,160972.2 L 538360.8,160999.5 L 538347.5,161027.5 L 538317.4,161081.6 L 538297.5,161104.3 L 538274.5,161135.9 L 538238.8,161178.5 L 538226.3,161187.2 L 538215.6,161188.9 L 538186.3,161180.3 L 538183.9,161187.2 L 538174.0,161222.5 L 538159.1,161278.8 L 538147.8,161309.6 L 538112.5,161355.9 L 538096.6,161393.2 L 538087.9,161417.1 L 538083.5,161430.1 L 538066.8,161486.4 L 538061.8,161497.1 L 538056.7,161507.2 L 538040.8,161520.4 L 538018.7,161540.8 L 537992.3,161572.7 L 537985.9,161582.5 L 537985.3,161584.0 L 537989.1,161610.0 L 537980.4,161643.4 L 537933.8,161702.8 L 537918.2,161717.3 L 537873.1,161746.8 L 537850.9,161758.0 L 537815.8,161765.5 L 537762.8,161772.3 L 537744.9,161772.0 L 537732.1,161773.4 L 537718.9,161775.1 L 537690.3,161781.0 L 537659.4,161797.7 L 537634.1,161787.1 L 537600.0,161790.7 L 537584.6,161787.0 L 537566.7,161780.8 L 537537.1,161771.8 L 537498.1,161761.5 L 537479.5,161754.8 L 537461.3,161747.7 L 537427.7,161731.9 L 537404.6,161717.3 L 537392.3,161709.6 L 537382.3,161703.9 L 537357.4,161694.9 L 537308.3,161682.4 L 537296.1,161674.9 L 537287.7,161670.7 L 537274.2,161665.7 L 537261.3,161662.8 L 537251.4,161661.5 L 537195.1,161658.6 L 537177.2,161658.3 L 537161.7,161657.2 L 537128.9,161653.2 L 537089.7,161660.6 L 537065.4,161670.1 L 537022.2,161712.7 L 537006.9,161721.7 L 536997.6,161718.8 L 536981.0,161719.7 L 536947.1,161731.4 L 536914.9,161743.7 L 536882.2,161744.8 L 536843.6,161763.4 L 536834.9,161765.9 L 536826.1,161768.1 L 536805.0,161772.2 L 536786.1,161773.0 L 536768.4,161784.5 L 536763.4,161777.6 L 536728.8,161742.5 L 536674.3,161680.2 L 536661.8,161660.4 L 536638.8,161616.6 L 536627.5,161588.3 L 536616.7,161554.8 L 536600.3,161522.9 L 536593.6,161502.5 L 536587.3,161482.0 L 536582.8,161463.8 L 536569.2,161403.7 L 536558.9,161361.7 L 536542.9,161319.7 L 536499.1,161232.7 L 536435.8,161213.1 L 536401.1,161212.7 L 536323.3,161218.0 L 536289.6,161211.4 L 536258.8,161206.1 L 536227.4,161197.7 L 536180.6,161187.8 L 536157.6,161171.0 L 536125.3,161145.4 L 536096.4,161133.1 L 536070.8,161118.4 L 536048.9,161107.1 L 536035.6,161103.5 L 536007.9,161097.5 L 535993.9,161095.0 L 535966.6,161093.3 L 535924.8,161087.1 L 535937.4,161033.8 L 535939.7,161022.2 L 535902.9,161001.3 L 535887.5,160988.0 L 535873.5,160969.4 L 535870.2,160943.3 L 535870.6,160910.0 L 535873.0,160886.1 L 535904.2,160816.3 L 535919.8,160794.3 L 535935.0,160775.0 L 535966.4,160752.7 L 535991.5,160727.8 L 536027.5,160677.7 L 536041.7,160653.9 L 536019.7,160641.0 L 536057.9,160578.3 L 536070.5,160556.6 L 536089.4,160513.7 L 536097.8,160487.7 L 536099.6,160476.3 L 536096.4,160471.9 L 536102.3,160453.2 L 536112.4,160410.0 L 536113.3,160388.2 L 536111.5,160301.6 L 536113.3,160269.3 L 536091.3,160261.6 L 536089.8,160269.7 L 536075.0,160272.9 L 536051.0,160281.0 L 536017.5,160282.2 L 535997.6,160275.5 L 535981.1,160268.2 L 535966.0,160234.3 L 535935.7,160194.4 L 535919.9,160162.2 L 535910.5,160141.8 L 535907.8,160135.1 L 535906.5,160125.4 L 535903.6,160092.8 L 535901.6,160086.1 L 535899.2,160079.7 L 535881.9,160062.1 L 535881.7,160000.0 L 535881.0,159973.1 L 535882.0,159951.9 L 535850.4,159945.6 L 535818.3,159941.2 L 535800.4,159942.4 L 535793.1,159935.5 L 535773.2,159923.3 L 535759.4,159912.1 L 535721.9,159876.2 L 535684.6,159845.9 L 535636.4,159812.9 L 535626.8,159812.3 L 535578.2,159820.9 L 535563.0,159832.8 L 535539.8,159855.6 L 535523.8,159846.4 L 535508.4,159839.1 L 535487.6,159821.4 L 535443.6,159773.5 L 535433.1,159761.4 L 535413.4,159733.4 L 535394.4,159709.2 L 535369.5,159694.6 L 535363.1,159692.3 L 535357.8,159691.3 L 535350.0,159690.5 L 535311.7,159673.6 L 535301.3,159670.3 L 535288.3,159668.4 L 535275.4,159667.7 L 535268.1,159667.7 L 535251.1,159669.6 L 535237.5,159669.6 L 535224.0,159659.9 L 535215.8,159652.1 L 535188.6,159619.4 L 535177.8,159602.9 L 535164.0,159592.5 L 535145.7,159583.7 L 535141.0,159570.9 L 535117.4,159560.2 L 535058.3,159532.1 L 535023.0,159514.6 L 535009.2,159504.7 z" /></g></g></svg>